<svg xmlns="http://www.w3.org/2000/svg" width="4248.019" height="2387.527" viewBox="0 0 3186.014 1790.645"><path d="M1621.514 212.266c-136.9 116.8-249.5 212.7-250.1 213-.7.3-56.9-37.8-125-84.7-68.2-46.9-124.6-85.3-125.5-85.3-1.2-.1-968.6 814.5-1002.9 844.4-2.8 2.4-6.2 4.7 198.2-132.3 80.1-53.8 146.3-98 147.1-98.3 1.8-.6 1.6-1.9 6.3 46.3 3.8 38.1 3.8 38.1 6.5 36 12.3-9.8 335.7-276.2 335.5-276.4-.1-.2-41.8 15.9-92.5 35.8-50.8 19.8-92.5 35.8-92.9 35.5-.3-.4 2.8-3.7 6.8-7.4 18.3-16.6 95.5-87.4 124.5-114.2 32-29.6 32-29.6 197.3-153.9 91-68.3 165.6-124 165.8-123.8 1.5 1.4 127.3 190.1 127 190.4-.2.2-24.1-10.7-53.2-24.1-29-13.5-52.9-24.4-53.1-24.3-.1.2 43.2 86.5 96.3 191.8 89.7 177.8 99.9 197.5 143.7 277.8 26.1 47.7 47.3 85.5 47.5 84.5.6-4.4 47.2-388.9 47.2-389.6 0-.4.4-.8.9-.8.6 0 112.5 62.8 248.8 139.6 291.6 164.3 259.3 146.2 256.8 143.7-1.1-1.1-95.6-76.2-210-166.8-114.4-90.7-244.3-193.6-288.8-228.8-44.4-35.3-80.6-64.4-80.5-64.8.4-1 378.5-285.9 379.5-285.9s92.6 199 92 199.6c-.2.3-33.9-2.4-74.8-6-40.9-3.5-74.5-6.3-74.7-6.1-.4.4 23.5 34.2 55.7 78.5 41.3 57 236.4 324.4 258.5 354.4 8 11 8 11 8.7 7.5.4-1.9 8.7-67.6 18.5-146.2 9.8-78.5 18.1-142.7 18.4-142.7.4 0 114.2 62.8 253 139.5 138.7 76.8 252.4 139.4 252.5 139.3.1-.2 8-14.8 17.6-32.5 9.6-17.8 17.8-32.3 18.2-32.3.7 0 130.2 93.4 405.2 292.3 7.6 5.5 10 6.9 7.9 4.6-87.7-97.2-227.6-237-427.4-427.5-55.9-53.3-56.9-54.2-57.8-52.7-26.1 40.4-25.3 39.4-27.6 37.5-1.2-.9-149-135.6-328.5-299.2s-326.7-297.6-327-297.7-112.6 95.5-249.6 212.3"/><path d="m996.014 643.266-47.5 55.7-65.9 43.8-65.9 43.8-29.2 67.5c-16.1 37.2-29.1 67.6-28.8 67.6.9 0 233.9-89.3 234.6-90 .4-.3 8.7-25.4 18.3-55.6l17.5-54.9 7.5-65c4.1-35.8 7.3-65.8 7.2-66.8-.2-1.2-16.1 16.7-47.8 53.9m-802 725c-54.8 5.1-96.7 22.9-130.4 55.4-18.8 18.2-29.5 32.7-40.7 55.5-47.4 96.7-19.1 215.1 65 271.6 45.5 30.6 109.6 41.7 172 29.7 63.9-12.2 117.1-59.2 139-123 8.8-25.8 14-59.6 14.1-91.6v-14.2l-102.2.2-102.3.3-.3 40.7-.2 40.8h42.5c30.4 0 42.5.3 42.5 1.1 0 2.8-3.4 13.9-6.1 19.7-8.9 19.7-27.6 34.9-50.4 40.9-10.8 2.8-41 2.5-52-.5-61.1-16.8-93.1-91.7-69.3-162.6 12.6-37.6 37.6-62.4 71.4-70.8 12.5-3.1 34.4-3.1 45.6 0 24.8 6.8 49 28.2 59 52.2 1.1 2.7 2.6 5 3.2 5 .9 0 96.5-39.8 97.4-40.5.6-.5-9.3-18.4-15.2-27.5-35.8-54.6-87.4-81.4-159.1-82.5-10.4-.1-21-.1-23.5.1m742 .5c-70.9 8.2-115 56.3-117.7 128.4-1.8 47.1 11.8 76.3 44.5 95.8 11.5 6.8 26.3 12.4 60.7 23.2 33.7 10.5 44.5 15 52.1 21.9 15.6 14 15.2 36.5-1 51.4-10 9.2-23.6 12.7-45.6 11.8-80.2-3.3-141.6-52.9-193.3-156.1-13.3-26.6-30.7-74.9-52-144l-7.4-24h-112.8l-76.1 202-76.1 202 54.4.3c54.5.2 54.5.2 56.5-2.5 4.6-6.3 34-34.3 42.8-40.9 36.8-27.5 64.7-37.2 103.9-36.1 40.9 1.1 76 13.4 141.8 49.6 37.7 20.7 50.6 26.5 71.3 32 30.5 8.1 73.8 9.4 105.1 3.1 56.6-11.5 94.9-50.7 105.6-108.3 2.1-11.7 2.5-47.1.5-56.2-4.7-21.3-11.9-34.7-27.3-50.2-18.2-18.3-33.7-26-83.4-41.3-32.6-10-40-13.1-48.2-20.3-11-9.7-11.2-28.7-.4-40.9 15.1-17.2 47.9-18.9 77.6-4.1 7.1 3.6 20.3 12 24 15.3 2 1.8 2.3 1.3 22.7-39.1l20.8-40.9-9-4.5c-41.7-21-95-31.9-134-27.4m-294.7 198.7c11.9 35 21.7 64.2 21.7 64.7 0 .6-2.4.9-5.6.7-24.3-1.6-71.3 12-89.1 25.7-5.2 4-5.2 4 1.5-15.3 31.3-89.8 48.8-139.6 49.2-139.6.3 0 10.3 28.7 22.3 63.8m502.7-146.3v44.5l42.3.2 42.2.3.3 157.7.2 157.8h103v-316h84v-89h-272zm360 158v202.5h225v-89h-122v-70h116v-89h-116v-68h122v-89h-225zm326 0v202.5h103v-405h-103zm206 0v202.5h103l.2-123.3.3-123.3 94.5 123.3 94.5 123.2 51.8.1h51.7v-405h-103l-.2 123.7-.3 123.7-94.9-123.7-95-123.7h-102.6zm498 0v202.5h225v-89h-122v-70h116v-89h-116v-68h122v-89h-225zm322 0v202.5h103l.2-77.5.3-77.6 49.4 77.6 49.3 77.5h63.9c35.2 0 63.9-.1 63.9-.3 0-.1-27.9-37.4-61.9-82.7-34.1-45.3-61.8-82.6-61.5-82.9.2-.3 4.1-1.5 8.7-2.8 48.4-13.8 76-53.4 76.1-109.3.1-60-32.1-106.7-83.8-121.5-18.4-5.2-24.3-5.5-119.7-5.5h-87.9zm137.5-120.4c17 2.3 29.7 8.5 37.8 18.5 18.1 22.3 11.7 58.5-12.8 71.6-11 5.9-21.3 8-41.2 8.6l-18.3.4v-100.2h13.4c7.4 0 16.9.5 21.1 1.1"/></svg>