<svg viewBox="0 0 500 500" xmlns="http://www.w3.org/2000/svg" width="500" height="500"><path fill="#fcb815" d="m70.64 6.871 3.949-.01 4.301.005 4.598-.007q6.307-.008 12.613-.004c4.537 0 9.075-.006 13.612-.01q13.33-.012 26.66-.012 10.837 0 21.675-.006 30.732-.014 61.465-.012h6.696q26.877-.002 53.753-.023 27.604-.023 55.207-.02 15.495.001 30.989-.014 13.192-.015 26.385-.005 6.728.007 13.456-.005 6.167-.011 12.332.002 2.224.003 4.448-.005c11.466-.04 22.01.445 32.284 5.88l2.068 1.075c15.659 8.379 26.325 21.782 31.989 38.63 2.633 9.248 3.452 17.803 3.388 27.45q.006 2.299.019 4.596c.016 4.166.008 8.33-.004 12.496-.01 4.51.005 9.018.016 13.528.018 8.816.014 17.633.002 26.45a11508 11508 0 0 0-.006 21.51l.002 3.1.004 6.236c.011 19.463-.002 38.926-.023 58.389q-.025 25.011.003 50.024a33482 33482 0 0 1 .014 64.398l-.002 3.087q-.003 10.732.012 21.465.017 13.094-.013 26.187c-.01 4.447-.015 8.895-.001 13.342q.017 6.123-.016 12.245-.008 2.2.007 4.399c.128 20.68-5.916 37.907-19.834 53.33-16.03 14.54-30.95 18.925-52.496 18.819q-2.32.005-4.64.014c-4.212.013-8.423.007-12.635-.003-4.557-.007-9.114.004-13.67.012-8.911.013-17.822.01-26.732.002a15664 15664 0 0 0-24.861-.003q-3.148 0-6.296.003c-19.652.008-39.304-.002-58.957-.018q-25.275-.018-50.55.003a45552 45552 0 0 1-65.036.01l-3.116-.001q-10.85-.003-21.7.009-13.226.013-26.451-.01c-4.496-.008-8.991-.011-13.487-.001q-6.18.013-12.359-.012a622 622 0 0 0-4.457.006c-17.89.08-33.168-4.707-46.202-17.337L27 474l-2.75-2.5c-13.5-15-16.563-33.214-16.517-52.724l-.014-4.56c-.012-4.152-.012-8.303-.01-12.455 0-4.487-.01-8.975-.02-13.462q-.023-13.174-.023-26.347-.002-10.714-.012-21.428a64544 64544 0 0 1-.024-67.441c0-17.71-.019-35.42-.047-53.13q-.043-27.311-.04-54.622c0-10.213-.005-20.425-.027-30.638q-.028-13.044-.009-26.088c.006-4.432.007-8.863-.01-13.294-.017-4.067-.013-8.134.004-12.201q.005-2.192-.012-4.383C7.351 59.436 12.491 42.879 25 28l1.883-2.5C37.536 12.92 54.582 6.881 70.64 6.871"/><path fill="#040301" d="M237.81 327.595q2.494-.033 4.99-.103c2.396-.067 4.79-.094 7.188-.113l2.248-.084c2.113.008 2.113.008 5.764.705 3.38 3.983 5.326 8.602 7.375 13.375l.975 2.23q1.137 2.603 2.266 5.21a3840 3840 0 0 0 5.017 11.482Q278.823 372.146 284 384h2c4.899-10.627 9.788-21.258 14.555-31.945l.888-1.991a4241 4241 0 0 0 4.316-9.703l1.589-3.568 1.406-3.171C310 331 310 331 312 328a67 67 0 0 1 8.035-.328l2.406.006q2.517.01 5.036.04c2.579.032 5.157.042 7.736.048l4.885.03 2.351.014c5.434.073 5.434.073 6.551 1.19.1 2.856.136 5.687.13 8.543l.005 2.715q.004 4.464-.002 8.93l.003 6.176q.001 6.481-.006 12.963-.006 8.329.004 16.657.005 6.38 0 12.76l.002 6.143q.003 4.285-.007 8.57l.007 2.591c-.022 5.838-.022 5.838-1.136 6.952-1.623.1-3.25.13-4.875.133l-2.984.004-3.141-.012-3.14.012-2.985-.004-2.758-.004C326 422 326 422 325 421a115 115 0 0 1-.114-5.805v-3.761l.016-4.094.005-4.166q.006-5.491.024-10.984.014-5.6.02-11.2.016-10.995.049-21.99h-2l-.746 2.438c-1.52 4.32-3.391 8.407-5.324 12.554l-1.212 2.617q-1.272 2.742-2.547 5.482a3710 3710 0 0 0-3.812 8.221A1017 1017 0 0 1 294 422h-18c-5.845-11.43-11.199-23.056-16.512-34.742a1963 1963 0 0 0-4.64-10.07l-1.54-3.331q-1.474-3.185-2.955-6.366l-1.333-2.89-1.185-2.552C247 360 247 360 247 358h-2l.007 2.385q.03 11.103.045 22.206.007 5.708.023 11.417.016 5.505.02 11.01.003 2.105.01 4.209c.008 1.959.008 3.917.009 5.876l.006 3.385C245 421 245 421 244 422a75 75 0 0 1-4.656.133l-2.848.004-2.996-.012-2.996.012-2.848-.004-2.63-.004C223 422 223 422 222 421a227 227 0 0 1-.13-8.543l-.005-2.715q-.004-4.464.002-8.93l-.003-6.176q-.002-6.481.006-12.963.006-8.329-.004-16.657-.005-6.38 0-12.76l-.002-6.143q-.003-4.285.007-8.57l-.007-2.591c.037-10.048 7.652-7.276 15.945-7.357"/><path fill="#050401" d="m445 329 1 52 10 1c1.59 1.59 1.13 3.239 1.133 5.438l.004 2.71-.012 2.852.012 2.852-.004 2.71-.004 2.504C457 403 457 403 456 404c-1.682.233-3.371.413-5.062.563l-2.786.253L446 405l-.184 3.465-.253 4.473-.12 2.287c-.33 5.662-.33 5.662-1.443 6.775-1.623.1-3.25.13-4.875.133l-2.984.004-3.141-.012-3.14.012-2.985-.004-2.758-.004C422 422 422 422 421 421a226 226 0 0 1-.562-8.062l-.131-2.3q-.159-2.818-.307-5.638l-2.31-.031q-10.749-.147-21.498-.308-5.527-.084-11.055-.158-5.33-.072-10.659-.156-2.038-.031-4.075-.056a1546 1546 0 0 1-5.69-.086c-1.081-.015-2.163-.03-3.277-.047C359 404 359 404 358 403c-.413-4.715-.528-9.431-.625-14.162a188 188 0 0 0-.184-4.763c-.666-13.133-.666-13.133 2.906-17.835 2.547-2.06 5.033-3.67 7.903-5.24q2.537-1.615 5.063-3.25l2.785-1.727c3.067-1.968 6.046-4.021 9.016-6.132a414 414 0 0 1 4.343-3.04c3.857-2.677 7.514-5.429 11.055-8.515C414.65 326.377 426.627 327.919 445 329"/><path fill="#070502" d="m127.698 328.864 2.478.007 2.596-.006q4.27-.004 8.54.002 2.955 0 5.908-.003 6.199-.001 12.398.006 7.965.006 15.93-.004 6.102-.005 12.204 0l5.876-.002q4.098-.003 8.196.007l2.478-.007c5.584.022 5.584.022 6.698 1.136.099 1.55.13 3.104.133 4.656l.004 2.848-.012 2.996.012 2.996-.004 2.848-.004 2.63C211 351 211 351 210 352a113 113 0 0 1-5.713.205l-3.7.06-4.028.051-4.099.063q-5.403.082-10.806.153-5.51.077-11.02.161-10.816.161-21.634.307v14l5.308.076q8.664.126 17.327.263 5.254.084 10.51.158c4.023.057 8.046.122 12.07.187l3.829.05 3.518.06 3.116.048C207 368 207 368 208 369c.099 1.55.13 3.104.133 4.656l.004 2.848-.012 2.996.012 2.996-.004 2.848-.004 2.63C208 390 208 390 207 391c-1.81.123-3.624.178-5.438.205l-3.518.06-3.83.051-3.896.063q-5.136.082-10.273.153-5.238.077-10.477.161-10.284.162-20.568.307l-.087 2.873-.238 7.836q-.095 3.135-.185 6.269-.082 2.79-.174 5.58l-.11 3.666C148 421 148 421 147 422c-1.842.1-3.687.13-5.531.133l-3.395.004-3.574-.012-3.574.012-3.395-.004-3.138-.004C122 422 122 422 121 421c-.1-2.825-.136-5.626-.13-8.451l-.005-2.685q-.004-4.417.002-8.833 0-3.054-.003-6.109-.001-6.411.006-12.822.006-8.237-.004-16.475-.005-6.31 0-12.62 0-3.04-.002-6.077-.003-4.238.007-8.477l-.007-2.563c.025-6.706.11-6.998 6.834-7.024"/><path fill="#160f04" d="M237.5 263.875C240 264 240 264 241 265c.098 1.376.128 2.757.13 4.137l.009 2.66-.006 2.89.003 2.948q0 3.093-.006 6.184-.005 4.75.007 9.501 0 2.997-.004 5.993l.006 2.89-.01 2.66-.002 2.353C241 309 241 309 240 310c-4.535.233-4.535.233-7-1l-3 1c-2.931.175-5.817.277-8.75.313l-2.383.087c-5.789.063-9.167-.96-13.867-4.4-2.894-3.516-2.331-8.082-2.312-12.437l-.05-2.276c-.003-4.607.454-7.511 3.362-11.287 4.53-4.228 9.537-4.139 15.5-4.125l3.344-.008c2.84.12 5.394.484 8.156 1.133l.184-2.59.254-3.348c.08-1.102.162-2.204.246-3.34.427-3.678.427-3.678 3.816-3.847"/><path fill="#1f1505" d="M302 278c3.138 2.604 4.71 4.13 6 8 .12 2.29.175 4.583.188 6.875l.042 3.68c-.32 4.786-1.13 7.43-4.668 10.695-4.901 3.348-9.528 3-15.25 3.063l-2.646.087c-5.981.058-10.81-.7-15.666-4.4-2.57-3.922-2.367-8.364-2.375-12.937l-.074-2.092c-.03-5.147 1.232-8.01 4.449-11.971 7.676-5.373 21.619-4.088 30-1"/><path fill="#1b1204" d="M192.438 279.75c3.715 5.35 2.713 12.795 2.687 19.063l.012 2.927-.004 2.78-.004 2.534C195 309 195 309 194 310c-4.344.267-8.694.271-13.045.295-2.183.017-4.363.061-6.545.105q-2.088.015-4.176.026l-3.837.044c-3.988-.552-5.608-1.615-8.397-4.47-1.237-3.71-1.563-7.144-1-11 1.875-3 1.875-3 4-5h2v-2l-4-1c-.323-3.555-.456-5.376 1.688-8.312 7.6-5.546 24.257-4.317 31.75 1.062"/><path fill="#fcb814" d="M421 353q.037 5.955.055 11.908.008 2.026.02 4.054.017 2.907.023 5.815l.016 3.54C421 381 421 381 420 382a234 234 0 0 1-8.629.098l-2.619-.005c-2.771-.005-5.543-.018-8.315-.03q-2.81-.009-5.623-.014-6.907-.017-13.814-.049c1.09-3.272 1.515-3.642 4.219-5.496l2.052-1.426 2.229-1.515 4.633-3.208 2.423-1.666c3.963-2.738 7.89-5.528 11.819-8.314a5771 5771 0 0 1 5.994-4.237C418.867 353 418.867 353 421 353m-138.437-70.398 2.664-.012 2.773.035 2.773-.035 2.664.012 2.434.01c2.653.484 3.54 1.234 5.129 3.388.363 3.25.363 3.25.313 7l-.012 3.75C301 300 301 300 299 303c-3.659 1.22-7.064 1.223-10.875 1.25l-2.145.063c-4.465.033-7.697-.144-10.98-3.313-.47-2.74-.614-4.78-.5-7.5l-.008-2.05c.097-4.89.097-4.89 1.752-7.142 2.24-1.668 3.543-1.695 6.318-1.706m-61.124.023 2.314-.035c3.281.017 5.727.185 8.76 1.496 2.262 2.91 1.946 5.287 1.863 8.914l-.04 3.75C234 300 234 300 232 303c-3.529 1.176-6.763 1.222-10.437 1.25l-3.997.078C214 304 214 304 211.555 302.953c-2.34-2.939-2.098-5.865-1.993-9.453l-.021-2.05c.035-2.721.205-4.956 1.459-7.395 3.315-1.748 6.784-1.485 10.438-1.43"/><path fill="#150e04" d="M149.875 279.438c2.81 3.902 2.2 7.989 2.125 12.562l-5 1-4-9q-2.937-.04-5.875-.062l-3.305-.036C131 284 131 284 129 285c-.952 2.855-1.19 4.91-1.316 7.887l-.127 2.842-.12 2.959-.13 2.994q-.159 3.658-.307 7.318a88 88 0 0 1-5 1c-1-1-1-1-1.114-3.96l.016-3.919.005-2.08c.005-2.202.018-4.403.03-6.603q.009-2.234.014-4.467.017-5.486.049-10.971c21.354-4.329 21.354-4.329 28.875 1.438"/><path fill="#070403" d="m253 277 5 1v31l-5 1c-1.908-1.908-1.13-5.315-1.133-7.844l-.003-2.073q0-2.175.006-4.348.005-3.338-.007-6.676 0-2.107.004-4.215l.004-3.9C252 278 252 278 253 277"/><path fill="#fbb813" d="m186 296 2 2c-.375 2.625-.375 2.625-1 5-4.056 1.352-7.816 1.184-12.062 1.188l-2.51.037-2.4.005-2.196.013C166 304 166 304 164 302c-.125-2.625-.125-2.625 0-5 6.542-3.49 14.95-2.469 22-1"/><path fill="#7b590c" d="M348 329h1q.034 17.967.052 35.934.007 8.342.023 16.684.016 8.043.02 16.086.003 3.077.01 6.152.01 4.293.009 8.585l.01 2.596c-.01 5.849-.01 5.849-1.124 6.963-1.623.1-3.25.13-4.875.133l-2.984.004-3.141-.012-3.14.012-2.985-.004-2.758-.004C326 422 326 422 325 421a115 115 0 0 1-.114-5.805v-3.761l.016-4.094.005-4.166q.006-5.491.024-10.984.014-5.6.02-11.2.016-10.995.049-21.99h-2l1-3h2l1 64h20z"/><path fill="#fbb813" d="m173.111 282.502 2.327.06 2.314-.021c3.397.038 5.719.192 8.783 1.736C188 286 188 286 188 290l-23-1-1-2c2.124-4.307 4.507-4.494 9.111-4.498"/><path fill="#7b590c" d="M237.5 263.875C240 264 240 264 241 265c.098 1.376.128 2.757.13 4.137l.009 2.66-.006 2.89.003 2.948q0 3.093-.006 6.184-.005 4.75.007 9.501 0 2.997-.004 5.993l.006 2.89-.01 2.66-.002 2.353C241 309 241 309 240 310c-3.62.294-5.877-.15-9-2 3.365-1.082 4.298-.925 8 0v-42h-3l-1 13h-3l1-2c.314-3.113.51-6.226.719-9.348.382-3.607.382-3.607 3.781-3.777M421 353h1q.037 6.168.055 12.335.008 2.1.02 4.2.017 3.011.023 6.024l.016 3.665C422 382 422 382 421 383a271 271 0 0 1-9.285.098l-2.82-.005c-2.986-.005-5.972-.018-8.957-.03q-3.03-.009-6.057-.014-7.44-.017-14.881-.049v-3h2v2l39-1z"/></svg>